<?xml version="1.0" encoding="iso-8859-1"?>
<!-- Generator: Adobe Illustrator 19.0.0, SVG Export Plug-In . SVG Version: 6.00 Build 0)  -->
<svg version="1.1" id="Capa_1" xmlns="http://www.w3.org/2000/svg" xmlns:xlink="http://www.w3.org/1999/xlink" x="0px" y="0px"
	 viewBox="0 0 512 512" style="enable-background:new 0 0 512 512;" xml:space="preserve">
<g>
	<g>
		<path d="M428.719,63.242C387.937,22.46,333.714,0,276.04,0s-111.898,22.46-152.68,63.242
			c-40.362,40.362-62.777,93.883-63.234,150.892l-39.292,78.584c-1.756,3.512-0.512,7.784,2.855,9.804l36.43,21.858V440.36
			c0,4.15,3.365,7.515,7.515,7.515h72.642v56.611c0,4.15,3.365,7.515,7.515,7.515c4.15,0,7.515-3.365,7.515-7.515V440.36
			c0-4.15-3.365-7.515-7.515-7.515H75.147v-112.72c0-2.639-1.385-5.086-3.648-6.444l-34.112-20.467l36.966-73.932
			c0.522-1.044,0.794-2.193,0.794-3.361c0-110.772,90.12-200.892,200.892-200.892s200.892,90.12,200.892,200.892
			c0,62.247-28.164,119.965-77.27,158.356c-1.822,1.424-2.887,3.608-2.887,5.921v124.287c0,4.15,3.365,7.515,7.515,7.515
			c4.15,0,7.515-3.365,7.515-7.515V383.823c50.992-41.246,80.157-102.227,80.157-167.901
			C491.961,158.247,469.502,104.024,428.719,63.242z"/>
	</g>
</g>
<g>
	<g>
		<path d="M466.95,220.253L394.872,92.116c-1.309-2.392-3.877-3.944-6.613-3.944h-73.366c-3.522-18.241-19.599-32.063-38.853-32.063
			s-35.331,13.822-38.853,32.063h-73.366c-2.736,0-5.304,1.552-6.613,3.944L85.13,220.253c-0.629,1.111-0.965,2.408-0.965,3.684
			c0,43.922,35.734,79.656,79.656,79.656c43.922,0,79.656-35.734,79.656-79.656c0-1.276-0.336-2.573-0.965-3.684l-65.843-117.052
			h60.532c1.885,9.661,7.33,18.375,15.292,24.286v257.263H235.96c-4.15,0-7.515,3.365-7.515,7.515v16.532h-32.564
			c-4.15,0-7.515,3.365-7.515,7.515v24.047c0,4.15,3.365,7.515,7.515,7.515h160.313c4.15,0,7.515-3.365,7.515-7.515v-24.047
			c0-4.15-3.365-7.515-7.515-7.515h-32.564v-16.532c0-4.15-3.365-7.515-7.515-7.515h-16.532v-44.253c0-4.15-3.365-7.515-7.515-7.515
			c-4.15,0-7.515,3.365-7.515,7.515v44.253h-17.033V123.449c0-2.682-1.43-5.16-3.75-6.504c-7.576-4.384-12.281-12.529-12.281-21.259
			c0-13.535,11.013-24.548,24.548-24.548c13.535,0,24.548,11.013,24.548,24.548c0,8.729-4.705,16.875-12.281,21.258
			c-2.32,1.344-3.75,3.821-3.75,6.504v180.973c0,4.15,3.365,7.515,7.515,7.515c4.15,0,7.515-3.365,7.515-7.515V127.488
			c7.963-5.911,13.407-14.626,15.292-24.286h60.532l-65.842,117.052c-0.629,1.111-0.965,2.408-0.965,3.684
			c0.001,43.922,35.734,79.656,79.657,79.656c43.922,0,79.656-35.734,79.656-79.656C467.914,222.661,467.579,221.364,466.95,220.253
			z M163.821,288.564c-33.095,0-60.458-25.002-64.191-57.112h128.384C224.279,263.562,196.914,288.564,163.821,288.564z
			 M223.112,216.423H104.528l59.293-105.408L223.112,216.423z M348.682,423.828v9.018H203.398v-9.018H348.682z M308.603,399.781
			v9.018h-65.127v-9.018H308.603z M388.258,111.015l59.293,105.408H328.966L388.258,111.015z M388.259,288.564
			c-33.095,0-60.458-25.002-64.191-57.112h128.384C448.717,263.562,421.353,288.564,388.259,288.564z"/>
	</g>
</g>
<g>
	<g>
		<path d="M277.042,88.172h-1.002c-4.15,0-7.515,3.365-7.515,7.515s3.365,7.515,7.515,7.515h1.002c4.15,0,7.515-3.365,7.515-7.515
			S281.192,88.172,277.042,88.172z"/>
	</g>
</g>
<g>
</g>
<g>
</g>
<g>
</g>
<g>
</g>
<g>
</g>
<g>
</g>
<g>
</g>
<g>
</g>
<g>
</g>
<g>
</g>
<g>
</g>
<g>
</g>
<g>
</g>
<g>
</g>
<g>
</g>
</svg>
