<svg height="496pt" viewBox="0 0 496.00023 496" width="496pt" xmlns="http://www.w3.org/2000/svg"><path d="m488 0h-336c-4.414062 0-8 3.574219-8 8v8h-24c-4.414062 0-8 3.574219-8 8v79.054688c-34.128906 19.722656-55.359375 55.59375-55.984375 95.144531l-55.261719 118.417969c-1.160156 2.480468-.96875 5.375.503906 7.679687 1.46875 2.304687 4.007813 3.703125 6.742188 3.703125h48v96c0 4.425781 3.585938 8 8 8h80v64h16v-72c0-4.425781-3.582031-8-8-8h-80v-96c0-4.425781-3.582031-8-8-8h-43.441406l50.691406-108.617188c.496094-1.0625.75-2.214843.75-3.382812 0-31.296875 15.039062-60.097656 40-77.984375v221.984375c0 4.425781 3.585938 8 8 8h153.648438l-16.914063 36.648438c-.484375 1.046874-.734375 2.191406-.734375 3.351562v104h16v-102.238281l19.273438-41.761719h180.726562c4.417969 0 8-3.574219 8-8v-24h8c4.417969 0 8-3.574219 8-8v-304c0-4.425781-3.582031-8-8-8zm-8 16v80h-320v-80zm-16 320h-336v-304h16v280c0 4.425781 3.585938 8 8 8h312zm-304-32v-192h320v192zm0 0"/><path d="m200 80c13.230469 0 24-10.769531 24-24s-10.769531-24-24-24-24 10.769531-24 24 10.769531 24 24 24zm0-32c4.410156 0 8 3.585938 8 8 0 4.417969-3.589844 8-8 8-4.40625 0-8-3.582031-8-8 0-4.414062 3.59375-8 8-8zm0 0"/><path d="m264 80c13.230469 0 24-10.769531 24-24s-10.769531-24-24-24-24 10.769531-24 24 10.769531 24 24 24zm0-32c4.410156 0 8 3.585938 8 8 0 4.417969-3.589844 8-8 8-4.40625 0-8-3.582031-8-8 0-4.414062 3.59375-8 8-8zm0 0"/><path d="m328 80c13.230469 0 24-10.769531 24-24s-10.769531-24-24-24-24 10.769531-24 24 10.769531 24 24 24zm0-32c4.410156 0 8 3.585938 8 8 0 4.417969-3.589844 8-8 8-4.40625 0-8-3.582031-8-8 0-4.414062 3.59375-8 8-8zm0 0"/><path d="m247.144531 197.976562c5.457031-5.746093 8.855469-13.449218 8.855469-21.976562v-16c0-17.648438-14.351562-32-32-32s-32 14.351562-32 32v16c0 8.527344 3.398438 16.230469 8.855469 21.976562-14.800781 8.183594-24.855469 23.945313-24.855469 42.023438v40c0 4.425781 3.585938 8 8 8h80c4.417969 0 8-3.574219 8-8v-40c0-18.078125-10.054688-33.839844-24.855469-42.023438zm-39.144531-21.976562v-16c0-8.824219 7.175781-16 16-16s16 7.175781 16 16v16c0 8.824219-7.175781 16-16 16s-16-7.175781-16-16zm48 96h-64v-32c0-17.648438 14.351562-32 32-32s32 14.351562 32 32zm0 0"/><path d="m288 272h176v16h-176zm0 0"/><path d="m288 240h176v16h-176zm0 0"/><path d="m288 208h176v16h-176zm0 0"/><path d="m288 176h96v16h-96zm0 0"/><path d="m288 144h96v16h-96zm0 0"/></svg>