<?xml version="1.0" encoding="iso-8859-1"?>
<!-- Generator: Adobe Illustrator 19.0.0, SVG Export Plug-In . SVG Version: 6.00 Build 0)  -->
<svg version="1.1" id="Capa_1" xmlns="http://www.w3.org/2000/svg" xmlns:xlink="http://www.w3.org/1999/xlink" x="0px" y="0px"
	 viewBox="0 0 512 512" style="enable-background:new 0 0 512 512;" xml:space="preserve">
<g>
	<g>
		<path d="M428.719,63.242C387.936,22.46,333.713,0,276.04,0S164.142,22.46,123.36,63.242
			c-40.361,40.362-62.776,93.883-63.234,150.892l-39.292,78.584c-1.756,3.512-0.513,7.784,2.856,9.804l36.429,21.858V440.36
			c0,4.15,3.364,7.515,7.515,7.515h72.642v56.611c0,4.15,3.364,7.515,7.515,7.515s7.515-3.365,7.515-7.515V440.36
			c0-4.15-3.364-7.515-7.515-7.515H75.147v-112.72c0-2.639-1.385-5.086-3.649-6.444l-34.111-20.467l36.966-73.932
			c0.522-1.044,0.794-2.193,0.794-3.361c0-110.772,90.12-200.892,200.892-200.892s200.892,90.12,200.892,200.892
			c0,62.247-28.164,119.964-77.27,158.356c-1.822,1.424-2.887,3.608-2.887,5.921v124.287c0,4.15,3.364,7.515,7.515,7.515
			s7.515-3.365,7.515-7.515V383.823c50.992-41.246,80.157-102.228,80.157-167.901C491.961,158.247,469.502,104.024,428.719,63.242z"
			/>
	</g>
</g>
<g>
	<g>
		<path d="M349.956,155.154c-2.638-3.205-7.375-3.664-10.578-1.027c-3.204,2.637-3.664,7.373-1.027,10.578
			c11.83,14.374,18.346,32.564,18.346,51.217c0,44.475-36.183,80.657-80.658,80.657s-80.658-36.183-80.658-80.658
			c0-44.475,36.183-80.658,80.658-80.658c12.163,0,23.847,2.637,34.73,7.837c3.74,1.787,8.23,0.205,10.02-3.54
			c1.789-3.744,0.204-8.231-3.54-10.021c-12.921-6.175-26.786-9.306-41.209-9.306c-52.762,0-95.687,42.925-95.687,95.687
			c0,52.762,42.925,95.687,95.687,95.687c52.762,0,95.687-42.925,95.687-95.687C371.727,193.792,363.995,172.211,349.956,155.154z"
			/>
	</g>
</g>
<g>
	<g>
		<path d="M276.04,64.125c-4.151,0-7.515,3.365-7.515,7.515v24.047c0,4.15,3.364,7.515,7.515,7.515s7.515-3.365,7.515-7.515V71.64
			C283.554,67.49,280.191,64.125,276.04,64.125z"/>
	</g>
</g>
<g>
	<g>
		<path d="M222.429,108.039l-12.023-20.826c-2.074-3.594-6.673-4.825-10.265-2.75c-3.594,2.075-4.825,6.671-2.75,10.265
			l12.023,20.826c1.392,2.41,3.919,3.758,6.515,3.758C221.627,119.312,225.262,112.945,222.429,108.039z"/>
	</g>
</g>
<g>
	<g>
		<path d="M175.671,149.297l-20.826-12.023c-3.596-2.076-8.191-0.844-10.265,2.75c-2.075,3.594-0.844,8.19,2.75,10.265
			l20.826,12.023c3.834,2.213,8.871,0.546,10.644-3.499C180.316,155.353,178.939,151.183,175.671,149.297z"/>
	</g>
</g>
<g>
	<g>
		<path d="M155.805,208.407h-24.047c-4.151,0-7.515,3.365-7.515,7.515c0,4.15,3.364,7.515,7.515,7.515h24.047
			c4.15,0,7.515-3.365,7.515-7.515C163.32,211.772,159.956,208.407,155.805,208.407z"/>
	</g>
</g>
<g>
	<g>
		<path d="M178.421,272.283c-2.074-3.595-6.672-4.827-10.265-2.751l-20.826,12.023c-3.269,1.888-4.646,6.057-3.129,9.518
			c1.772,4.044,6.81,5.713,10.644,3.499l20.826-12.023C179.265,280.473,180.496,275.877,178.421,272.283z"/>
	</g>
</g>
<g>
	<g>
		<path d="M219.68,313.54c-3.596-2.076-8.191-0.844-10.265,2.75l-12.023,20.826c-1.888,3.269-0.995,7.569,2.049,9.807
			c3.565,2.621,8.759,1.534,10.967-2.292l12.023-20.826C224.505,320.21,223.273,315.615,219.68,313.54z"/>
	</g>
</g>
<g>
	<g>
		<path d="M276.04,328.642c-4.151,0-7.515,3.365-7.515,7.515v24.047c0,4.15,3.364,7.515,7.515,7.515s7.515-3.365,7.515-7.515
			v-24.047C283.554,332.006,280.19,328.642,276.04,328.642z"/>
	</g>
</g>
<g>
	<g>
		<path d="M354.689,337.116l-12.025-20.826c-2.075-3.595-6.673-4.825-10.265-2.75c-3.594,2.075-4.825,6.671-2.75,10.265
			l12.023,20.826c2.208,3.826,7.402,4.914,10.967,2.292C355.684,344.685,356.576,340.386,354.689,337.116z"/>
	</g>
</g>
<g>
	<g>
		<path d="M404.748,281.555l-20.826-12.023c-3.596-2.076-8.191-0.844-10.265,2.75c-2.075,3.594-0.844,8.19,2.75,10.265
			l20.826,12.023c1.184,0.683,2.476,1.008,3.751,1.008c3.499,0,6.613-2.508,7.352-5.929
			C409.02,286.495,407.544,283.168,404.748,281.555z"/>
	</g>
</g>
<g>
	<g>
		<path d="M420.322,208.407h-24.047c-4.151,0-7.515,3.365-7.515,7.515c0,4.15,3.364,7.515,7.515,7.515h24.047
			c4.151,0,7.515-3.365,7.515-7.515C427.836,211.772,424.473,208.407,420.322,208.407z"/>
	</g>
</g>
<g>
	<g>
		<path d="M407.5,140.024c-2.076-3.596-6.673-4.827-10.265-2.751l-20.826,12.023c-3.269,1.888-4.646,6.057-3.129,9.518
			c1.772,4.044,6.81,5.713,10.644,3.499l20.826-12.023C408.343,148.214,409.575,143.619,407.5,140.024z"/>
	</g>
</g>
<g>
	<g>
		<path d="M351.938,84.463c-3.596-2.076-8.191-0.844-10.265,2.75l-12.023,20.826c-2.833,4.905,0.801,11.273,6.501,11.273
			c2.597,0,5.123-1.349,6.515-3.758l12.023-20.826C356.763,91.134,355.532,86.538,351.938,84.463z"/>
	</g>
</g>
<g>
	<g>
		<path d="M308.102,196.384h-12.524v-12.524c0-10.773-8.765-19.538-19.538-19.538c-10.773,0-19.538,8.765-19.538,19.538v12.524
			h-12.524c-10.773,0-19.538,8.765-19.538,19.538c0,10.773,8.765,19.538,19.538,19.538h12.524v12.524
			c0,10.773,8.765,19.538,19.538,19.538c10.773,0,19.538-8.765,19.538-19.538V235.46h12.524c10.773,0,19.538-8.765,19.538-19.538
			C327.641,205.149,318.875,196.384,308.102,196.384z M308.102,220.431h-20.039c-4.151,0-7.515,3.365-7.515,7.515v20.039
			c0,2.486-2.023,4.509-4.509,4.509s-4.509-2.023-4.509-4.509v-20.039c0-4.15-3.364-7.515-7.515-7.515h-20.039
			c-2.486,0-4.509-2.023-4.509-4.509c0-2.486,2.023-4.509,4.509-4.509h20.039c4.151,0,7.515-3.365,7.515-7.515v-20.039
			c0-2.486,2.023-4.509,4.509-4.509s4.509,2.023,4.509,4.509v20.039c0,4.15,3.364,7.515,7.515,7.515h20.039
			c2.486,0,4.509,2.023,4.509,4.509C312.611,218.408,310.588,220.431,308.102,220.431z"/>
	</g>
</g>
<g>
</g>
<g>
</g>
<g>
</g>
<g>
</g>
<g>
</g>
<g>
</g>
<g>
</g>
<g>
</g>
<g>
</g>
<g>
</g>
<g>
</g>
<g>
</g>
<g>
</g>
<g>
</g>
<g>
</g>
</svg>
